PathFileType	4	(X/Y/Z)	C:/Users/opensim2020/Desktop/walking_exp_matlab/subject01_walking09_straight_04.trc	
DataRate	CameraRate	NumFrames	NumMarkers	Units	OrigDataRate	OrigDataStartFrame	OrigNumFrames	
100.00	100.00	7	43	mm	100.00	4033	292	
Frame#	Time	LFHD			RFHD			LBHD			RBHD			C7			T10			CLAV			STRN			RBAK			LSHO			LUPA			LELB			LFRM			LWRA			LWRB			LFIN			RSHO			RUPA			RELB			RFRM			RWRA			RWRB			RFIN			LASI			RASI			LPSI			RPSI			LTHI			LKNE			LTIB			LANK			LHEE			LTOE			RTHI			RKNE			RTIB			RANK			RHEE			RTOE			*39			*40			*41			*42			
		X1	Y1	Z1	X2	Y2	Z2	X3	Y3	Z3	X4	Y4	Z4	X5	Y5	Z5	X6	Y6	Z6	X7	Y7	Z7	X8	Y8	Z8	X9	Y9	Z9	X10	Y10	Z10	X11	Y11	Z11	X12	Y12	Z12	X13	Y13	Z13	X14	Y14	Z14	X15	Y15	Z15	X16	Y16	Z16	X17	Y17	Z17	X18	Y18	Z18	X19	Y19	Z19	X20	Y20	Z20	X21	Y21	Z21	X22	Y22	Z22	X23	Y23	Z23	X24	Y24	Z24	X25	Y25	Z25	X26	Y26	Z26	X27	Y27	Z27	X28	Y28	Z28	X29	Y29	Z29	X30	Y30	Z30	X31	Y31	Z31	X32	Y32	Z32	X33	Y33	Z33	X34	Y34	Z34	X35	Y35	Z35	X36	Y36	Z36	X37	Y37	Z37	X38	Y38	Z38	X39	Y39	Z39	X40	Y40	Z40	X41	Y41	Z41	X42	Y42	Z42	X43	Y43	Z43	

147	1.460	1522.64429	171.50443	1659.42725	1411.34802	150.26770	1666.88049	1506.10364	291.21539	1627.96521	1386.66797	271.68219	1635.00452	1454.72632	338.15686	1426.14624	1431.97278	366.36450	1132.38843	1456.62219	193.86369	1360.28784	1454.79980	147.22812	1207.29480	1364.94226	387.23193	1234.55408	1616.72925	262.75626	1381.68652	1691.57617	302.13220	1195.50586	1688.00244	318.65390	1046.51477	1713.42834	289.04135	937.28839	1694.15222	219.10072	816.82166	1719.40784	274.50800	815.86145	1730.70361	230.32645	744.33807	1304.00452	253.01772	1394.46521	1190.93555	300.44919	1197.94592	1182.84277	293.93246	1072.56677	1149.31702	252.66551	959.79443	1170.05017	161.49184	851.02979	1127.18823	201.27026	849.89355	1128.27454	156.28879	775.90216	1533.64172	186.61137	929.77283	1317.43616	198.38983	923.50360	1491.60767	376.16803	944.22357	1347.14600	379.47797	947.95685	1591.71204	162.34285	608.51135	1571.45520	144.20642	476.69275	1581.57349	167.46768	287.51025	1527.43359	160.38097	69.10181	1471.98254	200.12663	39.03251	1531.82776	11.70391	37.63850	1266.93115	293.53049	593.89758	1285.62122	314.51187	434.32889	1284.14343	450.07065	319.03525	1330.82629	578.02637	153.64502	1384.32666	633.73114	150.23695	1338.84998	492.14618	37.11822	1434.27600	159.97591	1700.72583	-3101.99097	1973.17407	1023.31055	-3140.67041	2012.47815	1021.97070			 
148	1.470	1525.04004	164.24182	1660.04858	1413.74292	143.19637	1667.63135	1508.62512	284.00818	1628.56067	1389.31323	264.75058	1635.81519	1457.12671	330.86343	1426.87354	1434.00793	359.27676	1133.24292	1458.71240	186.70311	1361.01770	1456.85596	140.05667	1208.08960	1367.06763	380.12729	1235.49536	1618.88147	255.31287	1382.35535	1693.92261	294.08652	1196.15564	1690.33411	310.13351	1046.99548	1715.63074	279.67679	937.92236	1696.05945	208.81296	818.10059	1721.49536	264.10095	816.61603	1732.44873	218.39438	745.53650	1306.28027	245.95203	1395.47205	1193.08557	294.69888	1199.31482	1185.18140	288.93213	1073.93347	1151.35986	248.22514	960.80182	1171.71765	157.07236	851.84082	1129.08447	197.12744	850.73297	1130.21887	152.67087	776.38440	1535.76013	180.88634	929.76270	1319.63306	190.91512	924.71893	1493.29065	369.10068	945.06335	1348.67847	372.27466	948.75555	1592.93994	158.57388	607.96613	1572.39697	140.43832	476.25891	1581.62476	165.09268	287.06219	1527.11597	159.97417	68.93250	1471.93518	200.11510	39.11422	1531.72192	11.38744	37.22683	1267.23206	280.31018	593.65399	1285.13855	299.46652	433.95425	1284.37463	437.88876	321.72754	1331.11560	568.85986	159.66400	1385.45081	624.00037	158.90948	1339.80896	490.85580	37.72596	1436.68799	152.69524	1701.57422	-3101.97095	1973.14954	1023.41907	-3140.69067	2012.54565	1022.02136			 
149	1.480	1527.38171	157.04364	1660.59436	1416.05762	136.16728	1668.34473	1511.05103	276.81934	1629.05713	1392.01733	257.80273	1636.39734	1459.37415	323.71313	1427.54968	1436.14819	352.37466	1133.98315	1460.79004	179.56284	1361.64490	1458.83252	133.07661	1208.72083	1369.28345	373.12994	1236.34851	1620.95068	247.90839	1382.93481	1696.27881	286.10944	1196.75342	1692.73987	301.60773	1047.44580	1717.88928	270.21481	938.54315	1698.04822	198.36055	819.34906	1723.64441	253.61357	817.40228	1734.42810	207.22069	746.71112	1308.39551	238.98802	1396.37878	1195.27136	289.06271	1200.59802	1187.14880	283.95737	1075.13989	1153.37183	243.83844	961.71313	1173.53113	153.29190	852.27228	1131.10217	193.34431	851.44330	1132.15430	149.16034	776.77704	1537.76917	174.24747	930.14948	1321.92798	184.23895	925.66589	1494.97168	362.17313	945.76550	1350.28418	365.29956	949.36121	1594.22949	154.78421	607.37506	1573.44128	137.04977	475.83090	1581.98047	163.16794	286.77405	1527.01599	159.65875	68.90205	1471.74512	199.92319	39.09304	1531.67505	10.92546	36.89426	1267.50562	267.00125	593.15747	1285.09363	284.28998	433.82416	1284.72925	425.18558	324.50522	1331.90723	559.58466	165.35875	1386.43286	613.59204	167.65477	1340.50281	488.81519	39.20117	1439.13489	145.83559	1702.15173	-3101.97974	1973.11621	1023.46777	-3140.64111	2012.57324	1022.11639			 
150	1.490	1529.66541	149.89139	1661.05823	1418.28186	129.23465	1668.94141	1513.48730	269.70178	1629.46521	1394.38782	250.84785	1636.93030	1461.52332	316.61667	1428.16589	1438.29163	345.57523	1134.68176	1462.70581	172.43845	1362.16956	1460.70251	126.20642	1209.18921	1371.49597	366.24261	1237.07983	1622.92578	240.59937	1383.40442	1698.55786	278.00745	1197.24402	1695.10327	293.03595	1047.75989	1720.14343	260.71146	939.07013	1699.92224	187.81793	820.49518	1725.74878	242.96965	818.07813	1736.26819	195.89795	747.74200	1310.46545	231.95352	1397.09717	1197.45142	283.55905	1201.68994	1189.35583	278.95721	1076.13489	1155.35986	239.55119	962.53302	1175.14197	148.99454	852.84827	1132.87415	189.47169	851.99896	1134.05847	145.65524	777.03040	1539.73853	167.60635	930.49438	1323.76160	177.11026	926.68982	1496.64807	355.51944	946.32501	1351.86072	358.61725	949.71393	1595.47363	150.97899	606.88696	1574.58801	134.03745	475.46606	1582.40430	161.61511	286.53873	1526.89575	159.45058	68.83551	1471.64404	199.81380	39.05867	1531.69263	10.46160	36.68056	1267.75867	253.52739	592.79486	1285.13696	268.97449	433.61847	1285.25232	411.62943	327.28525	1332.43323	549.27478	171.06354	1386.95081	602.94360	175.84224	1342.02588	486.19778	41.36936	1441.36450	138.62053	1702.81641	-3101.90015	1973.20386	1023.46521	-3140.60718	2012.56958	1021.96399			 
151	1.500	1531.84253	142.80835	1661.40173	1420.49243	122.15849	1669.52527	1515.72388	262.55157	1629.77136	1396.59534	243.82544	1637.45752	1463.62402	309.46985	1428.74915	1440.46960	339.86212	1135.46301	1464.60876	165.41910	1362.64685	1462.46191	119.44674	1209.48193	1373.81384	359.51736	1237.74512	1624.79919	233.27274	1383.78186	1700.77808	269.95682	1197.66223	1697.51123	284.45648	1047.98279	1722.42542	251.08943	939.53217	1701.96875	177.14758	821.72882	1727.98450	232.22443	818.73230	1738.34363	184.49612	748.81622	1312.24915	225.12918	1397.79785	1199.54065	278.12607	1202.55200	1191.18262	273.95041	1077.06628	1157.37720	235.42395	963.07202	1176.81677	144.97696	853.17957	1134.80396	185.58514	852.37720	1135.90540	142.17877	777.20850	1541.58521	161.35733	930.60364	1325.69531	170.39658	927.58185	1498.28088	349.03888	946.73218	1353.37085	352.09796	949.72095	1596.81982	146.95871	606.67053	1575.80481	131.15869	475.14798	1582.86475	160.36166	286.34326	1526.86633	159.31552	68.84885	1471.65637	199.84497	39.15865	1531.92468	10.35578	36.42929	1268.18982	240.28714	592.47388	1285.35156	253.76176	433.61432	1285.72827	397.90894	329.95441	1333.32922	538.55560	176.95891	1387.68518	592.14691	183.89363	1342.95898	480.90060	44.91076	1443.64917	131.81161	1703.15381	-3102.20093	1972.88782	1023.98999	-3140.57202	2012.50891	1022.00275			 
152	1.510	1533.98108	135.69551	1661.71545	1422.58813	115.13018	1669.96704	1517.89478	255.45026	1630.07031	1398.62500	236.79735	1637.96228	1465.61182	302.49991	1429.31091	1442.52332	333.35446	1136.08093	1466.29480	158.53432	1362.83118	1464.14160	112.82142	1209.67822	1375.98218	352.85751	1238.28333	1626.60901	226.02243	1384.05212	1702.84485	261.91162	1197.89783	1699.89612	275.80951	1048.10303	1724.69910	241.41652	939.90826	1703.99463	166.43866	822.80579	1730.18115	221.33134	819.28381	1740.28296	172.91280	749.81030	1314.15063	218.23528	1398.25928	1201.50903	272.63171	1203.22937	1193.07629	269.04004	1077.76807	1159.07104	230.90169	963.71790	1178.48621	141.03447	853.35229	1136.53564	181.72023	852.70251	1137.72607	138.59090	777.21991	1543.39099	155.11263	930.79846	1327.34302	163.90453	928.20313	1499.73560	342.74268	947.00958	1354.74634	345.80383	949.44208	1598.15771	142.95082	606.62665	1577.05139	128.27322	474.83469	1583.43005	159.44804	286.14005	1526.87439	159.22763	68.81416	1471.63330	199.81581	39.20567	1532.04541	10.25633	36.15443	1268.76855	227.03566	592.25281	1285.86145	238.34659	433.50433	1285.91614	383.87552	332.12851	1334.47046	527.29907	182.72749	1388.76050	580.91199	191.17108	1343.68469	474.27203	48.80167	1445.76721	124.66396	1703.70654	-3101.88818	1973.17847	1023.37335	-3140.69629	2012.58301	1022.15125			 
153	1.520	1535.99646	128.55380	1661.98694	1424.61548	108.12165	1670.32458	1519.96313	248.35374	1630.37183	1400.83887	229.80756	1638.33679	1467.49316	295.62949	1429.86328	1444.48132	326.09290	1136.51453	1467.88379	151.70926	1363.03308	1465.67554	106.41623	1209.73975	1378.08386	346.34781	1238.83679	1628.35376	218.89488	1384.27637	1704.85632	253.80882	1198.11096	1702.25916	267.17517	1048.13306	1726.97449	231.68976	940.25989	1706.05945	155.63037	823.90076	1732.50684	210.39642	819.88361	1742.38855	161.28482	750.90460	1315.76599	211.53995	1398.82080	1203.47034	267.15408	1203.81409	1194.74011	264.13126	1078.40649	1160.87952	226.49294	964.14038	1180.16064	137.09947	853.47974	1138.31812	177.77370	852.87433	1139.49341	135.03059	777.32581	1545.04700	149.04666	930.93622	1328.96155	157.31345	928.92346	1500.96704	336.63943	947.14191	1355.99890	339.62143	948.96759	1599.46472	138.90660	606.45782	1578.22021	125.27294	474.55118	1584.02844	158.46361	286.07559	1526.93054	159.17963	68.76279	1471.68567	199.87651	39.22565	1532.26501	10.31647	35.94147	1269.35925	214.04814	592.18805	1286.30396	222.88634	433.67767	1286.26001	369.46500	333.99945	1335.85193	515.49872	188.30357	1390.59143	568.96039	197.86302	1342.93054	465.55469	53.39308	1447.81494	117.63408	1704.07153	-3102.03418	1972.98755	1024.07751	-3140.48975	2012.49658	1021.98267			 
